            <svg viewBox="0 0 683 128" fill="none"
                                    xmlns="http://www.w3.org/2000/svg">
                                    <path
                                        d="M4 64C4 97.2061 30.7957 124 63.7486 124C96.8157 124 123.497 97.0916 123.497 64C123.497 30.7939 96.7016 4 63.7486 4C31.3658 4 4 29.7634 4 62.0535C4 93.1985 29.0853 106.939 48.5834 106.939C73.2127 106.939 93.2809 86.9008 93.2809 62.0535C93.2809 37.3206 73.3267 17.1679 48.5834 17.1679C25.5506 17.1679 4 35.603 4 64Z"
                                        stroke="white" stroke-width="7.99961" stroke-miterlimit="10" />
                                    <path
                                        d="M216.085 101.897V103.729H204.112L197.727 89.5301H164.66L158.275 103.729H146.302V101.897L174.694 41.4385H187.693L216.085 101.897ZM192.71 78.8812L181.194 53.4614L169.677 78.8812H192.71Z"
                                        fill="white" />
                                    <path
                                        d="M280.168 74.8733C276.861 78.1939 272.186 80.1405 266.143 80.8275L284.843 102.011V103.843H271.274L251.092 81.0565H235.242V103.843H223.384V41.5527H262.152C269.336 41.5527 274.923 43.2703 279.028 46.8199C283.132 50.3695 285.185 55.1787 285.185 61.2474V62.3924C285.185 67.3161 283.475 71.5527 280.168 74.8733ZM273.098 60.6749C273.098 57.9268 272.072 55.8657 270.134 54.3772C268.195 52.8886 265.345 52.2016 261.696 52.2016H235.014V70.5222H261.696C265.345 70.5222 268.195 69.8352 270.134 68.3466C272.072 66.8581 273.098 64.6825 273.098 61.9344V60.6749Z"
                                        fill="white" />
                                    <path
                                        d="M396.927 41.4385V43.2705L374.806 103.729H360.439L342.993 56.2095L325.662 103.729H311.181L288.946 43.2705V41.4385H300.918L318.478 90.6751L336.608 41.4385H349.379L367.622 90.5606L384.954 41.4385H396.927Z"
                                        fill="white" />
                                    <path
                                        d="M414.943 100.986C409.47 98.3523 405.251 94.6882 402.286 89.879C399.322 85.0698 397.839 79.4591 397.839 73.1614V72.1309C397.839 65.7187 399.322 60.108 402.286 55.2988C405.251 50.4897 409.47 46.8256 414.943 44.192C420.416 41.5584 426.802 40.2988 433.985 40.2988C441.169 40.2988 447.554 41.5584 453.027 44.192C458.5 46.8256 462.719 50.4897 465.684 55.2988C468.648 60.108 470.131 65.7187 470.131 72.1309V73.1614C470.131 79.5737 468.648 85.1843 465.684 89.879C462.719 94.6882 458.5 98.3523 453.141 100.986C447.668 103.619 441.397 104.879 434.099 104.879C426.687 104.879 420.302 103.619 414.943 100.986ZM451.887 88.5049C456.106 84.9553 458.158 79.9172 458.158 73.3905V72.0164C458.158 65.4897 456.106 60.4515 451.887 56.7874C447.668 53.1233 441.739 51.2912 434.099 51.2912C426.459 51.2912 420.416 53.1233 416.197 56.7874C411.978 60.4515 409.812 65.4897 409.812 72.0164V73.3905C409.812 79.9172 411.978 84.9553 416.197 88.5049C420.416 92.0546 426.345 93.8866 434.099 93.8866C441.739 93.8866 447.668 92.0546 451.887 88.5049Z"
                                        fill="white" />
                                    <path
                                        d="M537.975 74.8733C534.669 78.1939 529.993 80.1405 523.95 80.8275L542.65 102.011V103.843H529.081L508.899 81.0565H493.05V103.843H481.191V41.5527H519.959C527.143 41.5527 532.73 43.2703 536.835 46.8199C540.94 50.3695 542.992 55.1787 542.992 61.2474V62.3924C542.992 67.3161 541.396 71.5527 537.975 74.8733ZM531.02 60.6749C531.02 57.9268 529.994 55.8657 528.055 54.3772C526.117 52.8886 523.266 52.2016 519.617 52.2016H493.05V70.5222H519.731C523.38 70.5222 526.231 69.8352 528.169 68.3466C530.108 66.8581 531.134 64.6825 531.134 61.9344V60.6749H531.02Z"
                                        fill="white" />
                                    <path d="M566.939 41.4385V93.0797H610.839V103.729H555.195V41.4385H566.939Z"
                                        fill="white" />
                                    <path
                                        d="M647.781 41.4385C659.184 41.4385 667.85 44.0721 673.779 49.2247C679.708 54.3774 682.673 62.0492 682.673 72.011V73.2705C682.673 83.2324 679.708 90.9041 673.779 96.0568C667.85 101.209 659.184 103.843 647.781 103.843H617.793V41.553H647.781V41.4385ZM664.999 88.2706C668.762 85.0645 670.586 80.1408 670.586 73.4996V72.011C670.586 58.7286 662.946 52.2018 647.667 52.2018H629.651V93.1942H647.781C655.421 93.0797 661.236 91.4767 664.999 88.2706Z"
                                        fill="white" />
                                </svg>