<svg width="26" height="19" viewBox="0 0 26 19" fill="none" xmlns="http://www.w3.org/2000/svg">
<path d="M21.8881 1.76603C20.3127 1.04709 18.6132 0.526474 16.8393 0.228981C16.8021 0.228981 16.7773 0.241377 16.7525 0.266168C16.5292 0.650429 16.2935 1.14625 16.1198 1.53051C14.2095 1.24541 12.3115 1.24541 10.4508 1.53051C10.2896 1.13385 10.0415 0.650429 9.81818 0.266168C9.80577 0.241377 9.76856 0.228981 9.74375 0.228981C7.96986 0.526474 6.2704 1.05948 4.69499 1.76603C4.68258 1.76603 4.67018 1.77842 4.65777 1.79082C1.44492 6.51351 0.564181 11.1247 0.99835 15.6738C0.99835 15.6986 1.01075 15.7234 1.03556 15.7358C3.14438 17.2728 5.20358 18.2025 7.21316 18.8223C7.25038 18.8347 7.27519 18.8223 7.3 18.7975C7.77138 18.1529 8.20555 17.4836 8.56529 16.7646C8.5901 16.7274 8.56529 16.6778 8.52808 16.6531C7.85821 16.4051 7.21316 16.0953 6.59292 15.7482C6.5433 15.7234 6.5433 15.649 6.58052 15.6242C6.70457 15.5251 6.84102 15.4259 6.96507 15.3267C6.98988 15.3143 7.01469 15.3019 7.0395 15.3143C11.0959 17.1365 15.4996 17.1365 19.5063 15.3143C19.5311 15.3019 19.5684 15.3019 19.5932 15.3267C19.7172 15.4259 19.8413 15.5251 19.9777 15.6242C20.0273 15.6614 20.0149 15.7234 19.9653 15.7482C19.3451 16.1077 18.7 16.4051 18.0302 16.6531C17.9805 16.6655 17.9681 16.715 17.993 16.7646C18.3651 17.4712 18.7869 18.1529 19.2582 18.7851C19.2831 18.8099 19.3079 18.8223 19.3451 18.8099C21.3671 18.1901 23.4263 17.2604 25.5475 15.7358C25.5599 15.7234 25.5723 15.6986 25.5847 15.6738C26.1057 10.4057 24.7164 5.84416 21.9129 1.79082C21.9129 1.79082 21.9005 1.77842 21.8881 1.76603ZM9.17313 12.9096C7.94505 12.9096 6.94026 11.8064 6.94026 10.4553C6.94026 9.10418 7.93264 8.00098 9.17313 8.00098C10.426 8.00098 11.4184 9.11658 11.406 10.4553C11.406 11.8064 10.4136 12.9096 9.17313 12.9096ZM17.4223 12.9096C16.1943 12.9096 15.1895 11.8064 15.1895 10.4553C15.1895 9.10418 16.1818 8.00098 17.4223 8.00098C18.6752 8.00098 19.6676 9.11658 19.6552 10.4553C19.6552 11.8064 18.6752 12.9096 17.4223 12.9096Z" fill="white"/>
</svg>
