<svg width="21" height="21" viewBox="0 0 21 21" fill="none" xmlns="http://www.w3.org/2000/svg">
<path d="M15.52 0H5.48C2.45348 0 0 2.45348 0 5.48V15.52C0 18.5465 2.45348 21 5.48 21H15.52C18.5465 21 21 18.5465 21 15.52V5.48C21 2.45348 18.5465 0 15.52 0Z" fill="white"/>
<path d="M10.5 16C13.5376 16 16 13.5376 16 10.5C16 7.46243 13.5376 5 10.5 5C7.46243 5 5 7.46243 5 10.5C5 13.5376 7.46243 16 10.5 16Z" fill="white" stroke="black" stroke-linecap="round" stroke-linejoin="round"/>
<path d="M16.5 4C16.7761 4 17 3.77614 17 3.5C17 3.22386 16.7761 3 16.5 3C16.2239 3 16 3.22386 16 3.5C16 3.77614 16.2239 4 16.5 4Z" fill="white"/>
<path d="M16.5 4C16.7761 4 17 3.77614 17 3.5C17 3.22386 16.7761 3 16.5 3C16.2239 3 16 3.22386 16 3.5C16 3.77614 16.2239 4 16.5 4Z" fill="black"/>
</svg>
