<svg xmlns="http://www.w3.org/2000/svg" width="244" height="46" viewBox="0 0 244 46" fill="none">
<path d="M2 23.177C2 34.897 11.5548 44.3539 23.3051 44.3539C35.0961 44.3539 44.6103 34.8566 44.6103 23.177C44.6103 11.4569 35.0555 2 23.3051 2C11.7581 2 2 11.0932 2 22.4899C2 33.4825 10.9449 38.3322 17.8975 38.3322C26.6798 38.3322 33.8357 31.2598 33.8357 22.4899C33.8357 13.7605 26.7205 6.64761 17.8975 6.64761C9.68449 6.64761 2 13.1543 2 23.177Z" stroke="white" stroke-width="2.8559" stroke-miterlimit="10"/>
<path d="M77.6258 36.5541V37.2007H73.3566L71.0797 32.1894H59.2887L57.0118 37.2007H52.7427V36.5541L62.8667 15.2155H67.5018L77.6258 36.5541ZM69.2908 28.4308L65.1842 19.4589L61.0777 28.4308H69.2908Z" fill="white"/>
<path d="M100.476 27.0158C99.2964 28.1878 97.6294 28.8748 95.4745 29.1173L102.143 36.5939V37.2405H97.3042L90.1076 29.1981H84.456V37.2405H80.2275V15.2553H94.0515C96.613 15.2553 98.6052 15.8615 100.069 17.1143C101.533 18.3672 102.265 20.0645 102.265 22.2065V22.6106C102.265 24.3484 101.655 25.8438 100.476 27.0158ZM97.9547 22.0044C97.9547 21.0345 97.5888 20.307 96.8976 19.7817C96.2064 19.2563 95.1899 19.0138 93.8888 19.0138H84.3747V25.48H93.8888C95.1899 25.48 96.2064 25.2375 96.8976 24.7122C97.5888 24.1868 97.9547 23.4189 97.9547 22.449V22.0044Z" fill="white"/>
<path d="M142.11 15.2155V15.8621L134.222 37.2007H129.099L122.879 20.4289L116.699 37.2007H111.535L103.606 15.8621V15.2155H107.876L114.137 32.5935L120.602 15.2155H125.156L131.661 32.5531L137.841 15.2155H142.11Z" fill="white"/>
<path d="M148.533 36.2308C146.582 35.3013 145.077 34.008 144.02 32.3106C142.963 30.6132 142.435 28.6329 142.435 26.4102V26.0464C142.435 23.7833 142.963 21.803 144.02 20.1056C145.077 18.4082 146.582 17.1149 148.533 16.1854C150.485 15.2559 152.762 14.8113 155.323 14.8113C157.885 14.8113 160.162 15.2559 162.113 16.1854C164.065 17.1149 165.569 18.4082 166.626 20.1056C167.684 21.803 168.212 23.7833 168.212 26.0464V26.4102C168.212 28.6734 167.684 30.6536 166.626 32.3106C165.569 34.008 164.065 35.3013 162.154 36.2308C160.202 37.1603 157.966 37.6049 155.364 37.6049C152.721 37.6049 150.444 37.1603 148.533 36.2308ZM161.707 31.8256C163.211 30.5728 163.943 28.7946 163.943 26.491V26.006C163.943 23.7024 163.211 21.9242 161.707 20.631C160.202 19.3377 158.088 18.6911 155.364 18.6911C152.64 18.6911 150.485 19.3377 148.981 20.631C147.476 21.9242 146.704 23.7024 146.704 26.006V26.491C146.704 28.7946 147.476 30.5728 148.981 31.8256C150.485 33.0785 152.599 33.7251 155.364 33.7251C158.088 33.7251 160.202 33.0785 161.707 31.8256Z" fill="white"/>
<path d="M192.405 27.0158C191.226 28.1878 189.559 28.8748 187.404 29.1173L194.072 36.5939V37.2405H189.233L182.037 29.1981H176.385V37.2405H172.157V15.2553H185.981C188.542 15.2553 190.534 15.8615 191.998 17.1143C193.462 18.3672 194.194 20.0645 194.194 22.2065V22.6106C194.194 24.3484 193.625 25.8438 192.405 27.0158ZM189.925 22.0044C189.925 21.0345 189.559 20.307 188.867 19.7817C188.176 19.2563 187.16 19.0138 185.859 19.0138H176.385V25.48H185.899C187.2 25.48 188.217 25.2375 188.908 24.7122C189.599 24.1868 189.965 23.4189 189.965 22.449V22.0044H189.925Z" fill="white"/>
<path d="M202.732 15.2155V33.4422H218.385V37.2007H198.544V15.2155H202.732Z" fill="white"/>
<path d="M231.558 15.2155C235.624 15.2155 238.714 16.145 240.829 17.9636C242.943 19.7822 244 22.49 244 26.006V26.4506C244 29.9666 242.943 32.6743 240.829 34.4929C238.714 36.3116 235.624 37.2411 231.558 37.2411H220.865V15.2559H231.558V15.2155ZM237.698 31.7448C239.04 30.6132 239.69 28.8754 239.69 26.5314V26.006C239.69 21.318 236.966 19.0144 231.518 19.0144H225.094V33.4826H231.558C234.283 33.4422 236.356 32.8764 237.698 31.7448Z" fill="white"/>
</svg>