<svg width="22" height="13" viewBox="0 0 22 13" fill="none" xmlns="http://www.w3.org/2000/svg">
<path d="M12.3602 6.70247C12.3602 9.88455 9.80275 12.4641 6.6482 12.4641C3.49364 12.4641 0.936035 9.88396 0.936035 6.70247C0.936035 3.52098 3.49345 0.940632 6.6482 0.940632C9.80295 0.940632 12.3602 3.52039 12.3602 6.70247Z" fill="white"/>
<path d="M18.6262 6.70248C18.6262 9.69772 17.3475 12.1268 15.7701 12.1268C14.1928 12.1268 12.9141 9.69772 12.9141 6.70248C12.9141 3.70724 14.1926 1.27816 15.77 1.27816C17.3473 1.27816 18.626 3.70647 18.626 6.70248" fill="white"/>
<path d="M21.1894 6.70247C21.1894 9.38547 20.7398 11.5618 20.185 11.5618C19.6301 11.5618 19.1807 9.38606 19.1807 6.70247C19.1807 4.01889 19.6303 1.84313 20.185 1.84313C20.7396 1.84313 21.1894 4.01869 21.1894 6.70247Z" fill="white"/>
</svg>
