<svg width="29" height="29" viewBox="0 0 29 29" fill="none" xmlns="http://www.w3.org/2000/svg">
<path d="M14.5 28C7.04416 28 1 21.9558 1 14.5C1 7.04416 7.04416 1 14.5 1C21.9558 1 28 7.04416 28 14.5C28 21.9558 21.9558 28 14.5 28Z" stroke="white"/>
<path d="M7.58743 14.2448C11.3455 12.6074 13.8515 11.528 15.1054 11.0065C18.6854 9.51738 19.4293 9.25872 19.9142 9.25008C20.0209 9.2483 20.2593 9.27472 20.4137 9.40005C20.5442 9.50588 20.5801 9.64883 20.5972 9.74917C20.6144 9.8495 20.6358 10.0781 20.6188 10.2567C20.4248 12.2951 19.5853 17.2418 19.1582 19.5249C18.9775 20.4909 18.6217 20.8148 18.2772 20.8465C17.5286 20.9154 16.9601 20.3518 16.2351 19.8765C15.1005 19.1328 14.4595 18.6698 13.3582 17.944C12.0854 17.1053 12.9105 16.6443 13.6358 15.8909C13.8256 15.6937 17.1241 12.6935 17.1879 12.4214C17.1959 12.3873 17.2033 12.2604 17.128 12.1934C17.0526 12.1264 16.9413 12.1494 16.861 12.1676C16.7473 12.1934 14.9347 13.3914 11.4234 15.7617C10.9089 16.1149 10.4429 16.2871 10.0254 16.2781C9.5651 16.2681 8.67969 16.0178 8.02148 15.8038C7.21416 15.5414 6.57252 15.4027 6.62839 14.957C6.65749 14.7248 6.97717 14.4874 7.58743 14.2448Z" fill="white"/>
</svg>
