<svg width="21" height="17" viewBox="0 0 21 17" fill="none" xmlns="http://www.w3.org/2000/svg">
<path d="M1.52782 7.47635C6.85304 5.15624 10.404 3.62667 12.1808 2.88767C17.2537 0.777647 18.3078 0.411115 18.9949 0.398883C19.146 0.39635 19.4839 0.4338 19.7027 0.611391C19.8876 0.761345 19.9384 0.963913 19.9627 1.10609C19.9871 1.24826 20.0174 1.57213 19.9933 1.8252C19.7184 4.71365 18.5289 11.7232 17.9237 14.9583C17.6676 16.3272 17.1634 16.7862 16.6753 16.8311C15.6145 16.9287 14.809 16.13 13.7816 15.4565C12.1738 14.4026 11.2655 13.7466 9.70495 12.7182C7.90142 11.5297 9.07058 10.8765 10.0984 9.80892C10.3674 9.52954 15.0413 5.27825 15.1318 4.89259C15.1431 4.84436 15.1536 4.66457 15.0468 4.56963C14.94 4.4747 14.7823 4.50716 14.6686 4.53298C14.5073 4.56958 11.9389 6.26719 6.96341 9.6258C6.23439 10.1264 5.57406 10.3703 4.98242 10.3575C4.33019 10.3434 3.07557 9.98876 2.14288 9.68558C0.998906 9.31372 0.0896967 9.11711 0.168868 8.48558C0.210106 8.15663 0.663091 7.82022 1.52782 7.47635Z" fill="white"/>
</svg>
