<svg width="21" height="18" viewBox="0 0 21 18" fill="none" xmlns="http://www.w3.org/2000/svg">
<path d="M20.4856 2.75C19.7356 3.125 18.9856 3.25 18.1106 3.375C18.9856 2.875 19.6106 2.125 19.8606 1.125C19.1106 1.625 18.2356 1.875 17.2356 2.125C16.4856 1.375 15.3606 0.874996 14.2356 0.874996C11.6106 0.874996 9.6106 3.375 10.2356 5.875C6.8606 5.75 3.8606 4.125 1.7356 1.625C0.610596 3.5 1.2356 5.875 2.9856 7.125C2.3606 7.125 1.7356 6.875 1.1106 6.625C1.1106 8.5 2.4856 10.25 4.3606 10.75C3.7356 10.875 3.1106 11 2.4856 10.875C2.9856 12.5 4.4856 13.75 6.3606 13.75C4.8606 14.875 2.6106 15.5 0.485596 15.25C2.3606 16.375 4.4856 17.125 6.7356 17.125C14.3606 17.125 18.6106 10.75 18.3606 4.875C19.2356 4.375 19.9856 3.625 20.4856 2.75Z" fill="white"/>
</svg>
