<svg width="21" height="15" viewBox="0 0 21 15" fill="none" xmlns="http://www.w3.org/2000/svg">
<path d="M20.2317 3.00252C19.9838 2.1346 19.3638 1.51466 18.4959 1.26669C17.0081 0.894726 10.6847 0.894726 10.6847 0.894726C10.6847 0.894726 4.4853 0.894726 2.87346 1.26669C2.00555 1.51466 1.3856 2.1346 1.13762 3.00252C0.889645 4.61436 0.889648 7.83804 0.889648 7.83804C0.889648 7.83804 0.889652 11.0617 1.26162 12.6736C1.50959 13.5415 2.12952 14.1614 2.99744 14.4094C4.48529 14.7813 10.8087 14.7814 10.8087 14.7814C10.8087 14.7814 17.008 14.7813 18.6199 14.4094C19.4878 14.1614 20.1078 13.5415 20.3557 12.6736C20.7277 11.0617 20.7277 7.83804 20.7277 7.83804C20.7277 7.83804 20.7277 4.61436 20.2317 3.00252ZM8.82486 10.8137V4.86233L14.0324 7.83804L8.82486 10.8137Z" fill="white"/>
</svg>
